<?xml version="1.0" encoding="utf-8" ?>
<svg xmlns="http://www.w3.org/2000/svg" xmlns:xlink="http://www.w3.org/1999/xlink" width="1024" height="1024">
	<path fill="#83E4F8" transform="scale(2 2)" d="M211.757 279.278C211.916 280.153 212.064 280.287 212.619 280.942C216.215 285.625 218.973 291.476 222.129 296.524L245.03 332.939C247.797 337.43 252.526 346.183 255.899 349.899L255.899 349.899C254.26 351.188 230.462 389.868 227.187 395.258C203.582 434.108 199.855 438.455 157.039 438.453L134.687 438.471C127.517 438.478 120.028 439.074 113.1 436.841L112.321 436.841C113.018 436.189 114.141 433.557 114.779 432.529C135.393 399.339 157.068 366.724 177.771 333.48C187.503 317.854 196.875 301.933 207.088 286.614C208.249 284.041 210.16 281.603 211.757 279.278Z"/>
	<path fill="#83E4F8" transform="scale(2 2)" d="M207.088 286.614C207.329 288.071 194.829 306.592 193.12 309.341L155.697 369.469C153.829 372.502 146.894 382.426 146.143 384.993C147.799 383.997 156.809 368.387 159.183 365.443C156.576 370.359 153.263 375.087 150.222 379.747L115.909 432.881C115.024 434.235 114.468 435.894 113.1 436.841L112.321 436.841C113.018 436.189 114.141 433.557 114.779 432.529C135.393 399.339 157.068 366.724 177.771 333.48C187.503 317.854 196.875 301.933 207.088 286.614Z"/>
	<defs>
		<linearGradient id="gradient_0" gradientUnits="userSpaceOnUse" x1="148.34113" y1="430.58984" x2="113.33654" y2="184.06544">
			<stop offset="0" stop-color="#6BA2FB"/>
			<stop offset="1" stop-color="#83E4F8"/>
		</linearGradient>
	</defs>
	<path fill="url(#gradient_0)" transform="scale(2 2)" d="M147.334 178.127C148.469 180.419 150.133 182.521 151.574 184.639C159.906 196.884 167.698 209.568 175.743 222.009L196.673 254.896C201.626 262.751 207.556 271.017 211.757 279.278C210.16 281.603 208.249 284.041 207.088 286.614C196.875 301.933 187.503 317.854 177.771 333.48C157.068 366.724 135.393 399.339 114.779 432.529C114.141 433.557 113.018 436.189 112.321 436.841C93.5452 429.415 92.0125 422.153 82.1685 406.724L67.3872 383.385C55.3239 364.342 46.0283 348.019 55.4083 324.251C57.968 317.765 62.6433 311.621 66.3389 305.689L133.912 199.012C138.396 192.05 142.69 184.985 147.334 178.127Z"/>
	<defs>
		<linearGradient id="gradient_1" gradientUnits="userSpaceOnUse" x1="291.6748" y1="265.48492" x2="443.80603" y2="393.58801">
			<stop offset="0" stop-color="#6BA2FB"/>
			<stop offset="1" stop-color="#83E4F8"/>
		</linearGradient>
	</defs>
	<path fill="url(#gradient_1)" transform="scale(2 2)" d="M255.899 349.899L359.624 186.671C361.29 184.054 363.649 181.074 364.595 178.127C370.854 186.474 376.077 195.721 381.797 204.45C397.854 228.954 413.288 253.834 428.832 278.663L447.195 308.188C450.058 312.769 453.826 317.552 455.916 322.523C464.979 344.075 460.062 360.015 448.621 378.267L428.042 411.146C413.912 433.547 405.738 438.495 380.647 438.474L346.012 438.46C313.737 438.481 308.029 431.501 290.451 404.066C278.908 386.05 268.11 367.454 255.899 349.899L255.899 349.899Z"/>
	<defs>
		<linearGradient id="gradient_2" gradientUnits="userSpaceOnUse" x1="168.07314" y1="229.84819" x2="314.21164" y2="98.653252">
			<stop offset="0" stop-color="#83E4F8"/>
			<stop offset="1" stop-color="#CEEAF3"/>
		</linearGradient>
	</defs>
	<path fill="url(#gradient_2)" transform="scale(2 2)" d="M147.334 178.127C153 169.784 158.238 161.19 163.673 152.703L195.757 102.841C198.397 98.7135 200.959 94.5115 204.108 90.7444C228.198 61.9275 273.294 57.9915 300.989 83.468C308.48 90.3589 313.651 98.6585 319.1 107.134L330.745 125.228C340.012 139.63 349.497 153.878 358.455 168.473C360.162 169.891 364.01 176.084 364.595 178.127C363.649 181.074 361.29 184.054 359.624 186.671L255.899 349.899C252.526 346.183 247.797 337.43 245.03 332.939L222.129 296.524C218.973 291.476 216.215 285.625 212.619 280.942C212.064 280.287 211.916 280.153 211.757 279.278C207.556 271.017 201.626 262.751 196.673 254.896L175.743 222.009C167.698 209.568 159.906 196.884 151.574 184.639C150.133 182.521 148.469 180.419 147.334 178.127Z"/>
	<defs>
		<linearGradient id="gradient_3" gradientUnits="userSpaceOnUse" x1="274.36871" y1="350.8754" x2="297.25662" y2="147.68129">
			<stop offset="0" stop-color="#83E4F8"/>
			<stop offset="1" stop-color="#CEEAF3"/>
		</linearGradient>
	</defs>
	<path fill="url(#gradient_3)" transform="scale(2 2)" d="M212.619 280.942C211.135 277.441 232.797 245.632 235.874 240.709L270.102 185.507C273.275 180.411 276.161 174.949 279.753 170.14C295.246 149.39 325.951 143.832 347.07 159.609C349.604 161.502 355.745 168.213 358.455 168.473C360.162 169.891 364.01 176.084 364.595 178.127C363.649 181.074 361.29 184.054 359.624 186.671L255.899 349.899C252.526 346.183 247.797 337.43 245.03 332.939L222.129 296.524C218.973 291.476 216.215 285.625 212.619 280.942Z"/>
</svg>
